<svg xmlns="http://www.w3.org/2000/svg" viewBox="0 0 200 200" width="200" height="200">
  <rect width="200" height="200" fill="#FFF8F0" rx="0" opacity="0"/>
  
  
    <polygon points="61,87.35 47.349999999999994,58.099999999999994 85.18,73.7" fill="#9CA3AF"/>
    <polygon points="64.9,83.45 53.980000000000004,63.95 80.5,75.65" fill="#E5E7EB"/>
    <polygon points="139,87.35 152.65,58.099999999999994 114.82,73.7" fill="#9CA3AF"/>
    <polygon points="135.1,83.45 146.01999999999998,63.95 119.5,75.65" fill="#E5E7EB"/>
  
  <circle cx="100" cy="120.5" r="39" fill="#9CA3AF"/>
  <circle cx="100" cy="124.4" r="25.35" fill="#E5E7EB" opacity="0.4"/>
  
    <line x1="80.5" y1="114.65" x2="89.86" y2="114.65" stroke="#5B4FCF" stroke-width="3.51" stroke-linecap="round"/>
    <line x1="110.14" y1="114.65" x2="119.5" y2="114.65" stroke="#5B4FCF" stroke-width="3.51" stroke-linecap="round"/>
  <ellipse cx="100" cy="127.52" rx="3.51" ry="2.7300000000000004" fill="#F9A8D4"/>
  
    <path d="M95.32,130.64 Q91.42,134.54 87.52,131.42000000000002" stroke="#6B7280" stroke-width="2.7300000000000004" fill="none" stroke-linecap="round"/>
    <path d="M104.68,130.64 Q108.58,134.54 112.48,131.42000000000002" stroke="#6B7280" stroke-width="2.7300000000000004" fill="none" stroke-linecap="round"/>
  
  
    <line x1="94.15" y1="128.3" x2="70.75" y2="125.18" stroke="#6B7280" stroke-width="1.56" stroke-linecap="round" opacity="0.6"/>
    <line x1="94.15" y1="130.25" x2="70.75" y2="132.2" stroke="#6B7280" stroke-width="1.56" stroke-linecap="round" opacity="0.6"/>
    <line x1="105.85" y1="128.3" x2="129.25" y2="125.18" stroke="#6B7280" stroke-width="1.56" stroke-linecap="round" opacity="0.6"/>
    <line x1="105.85" y1="130.25" x2="129.25" y2="132.2" stroke="#6B7280" stroke-width="1.56" stroke-linecap="round" opacity="0.6"/>
  
</svg>