<svg xmlns="http://www.w3.org/2000/svg" viewBox="0 0 200 200" width="200" height="200">
  <rect width="200" height="200" fill="#FFF8F0" rx="0" opacity="0"/>
  <path d="M151,134.9 Q186.7,114.5 176.5,94.1" stroke="#D1D5DB" stroke-width="10.200000000000001" fill="none" stroke-linecap="round"/>
  
    <polygon points="49,71.15 31.14999999999999,32.89999999999999 80.62,53.300000000000004" fill="#F9FAFB"/>
    <polygon points="54.1,66.05000000000001 39.82,40.55 74.5,55.85" fill="#FFFFFF"/>
    <polygon points="151,71.15 168.85000000000002,32.89999999999999 119.38,53.300000000000004" fill="#F9FAFB"/>
    <polygon points="145.9,66.05000000000001 160.18,40.55 125.5,55.85" fill="#FFFFFF"/>
  
  <circle cx="100" cy="114.5" r="51" fill="#F9FAFB"/>
  <circle cx="100" cy="119.6" r="33.15" fill="#FFFFFF" opacity="0.4"/>
  
    <ellipse cx="80.62" cy="106.85" rx="6.63" ry="8.16" fill="#5B4FCF"/>
    <ellipse cx="119.38" cy="106.85" rx="6.63" ry="8.16" fill="#5B4FCF"/>
  <ellipse cx="100" cy="123.68" rx="4.59" ry="3.5700000000000003" fill="#F9A8D4"/>
  
    <path d="M93.88,127.76 Q88.78,132.86 83.68,128.78" stroke="#D1D5DB" stroke-width="3.5700000000000003" fill="none" stroke-linecap="round"/>
    <path d="M106.12,127.76 Q111.22,132.86 116.32,128.78" stroke="#D1D5DB" stroke-width="3.5700000000000003" fill="none" stroke-linecap="round"/>
  
  
    <line x1="92.35" y1="124.7" x2="61.75" y2="120.62" stroke="#D1D5DB" stroke-width="2.04" stroke-linecap="round" opacity="0.6"/>
    <line x1="92.35" y1="127.25" x2="61.75" y2="129.8" stroke="#D1D5DB" stroke-width="2.04" stroke-linecap="round" opacity="0.6"/>
    <line x1="107.65" y1="124.7" x2="138.25" y2="120.62" stroke="#D1D5DB" stroke-width="2.04" stroke-linecap="round" opacity="0.6"/>
    <line x1="107.65" y1="127.25" x2="138.25" y2="129.8" stroke="#D1D5DB" stroke-width="2.04" stroke-linecap="round" opacity="0.6"/>
  
</svg>