<svg xmlns="http://www.w3.org/2000/svg" viewBox="0 0 200 200" width="200" height="200">
  <rect width="200" height="200" fill="#FFF8F0" rx="0" opacity="0"/>
  <path d="M145,135.5 Q172,122 163,104" stroke="#E76F51" stroke-width="8.1" fill="none" stroke-linecap="round"/>
  
    <polygon points="55,79.25 39.24999999999999,45.5 82.9,63.5" fill="#F4A261"/>
    <polygon points="59.5,74.75 46.900000000000006,52.25 77.5,65.75" fill="#FDDCB5"/>
    <polygon points="145,79.25 160.75,45.5 117.1,63.5" fill="#F4A261"/>
    <polygon points="140.5,74.75 153.1,52.25 122.5,65.75" fill="#FDDCB5"/>
  
  <circle cx="100" cy="117.5" r="45" fill="#F4A261"/>
  <circle cx="100" cy="122" r="29.25" fill="#FDDCB5" opacity="0.4"/>
  
    <ellipse cx="82.9" cy="110.75" rx="5.8500000000000005" ry="7.2" fill="#5B4FCF"/>
    <ellipse cx="117.1" cy="110.75" rx="5.8500000000000005" ry="7.2" fill="#5B4FCF"/>
  <ellipse cx="100" cy="125.6" rx="4.05" ry="3.1500000000000004" fill="#F9A8D4"/>
  
    <path d="M94.6,129.2 Q90.1,133.7 85.6,130.1" stroke="#E76F51" stroke-width="3.1500000000000004" fill="none" stroke-linecap="round"/>
    <path d="M105.4,129.2 Q109.9,133.7 114.4,130.1" stroke="#E76F51" stroke-width="3.1500000000000004" fill="none" stroke-linecap="round"/>
  
  
    <line x1="93.25" y1="126.5" x2="66.25" y2="122.9" stroke="#E76F51" stroke-width="1.8" stroke-linecap="round" opacity="0.6"/>
    <line x1="93.25" y1="128.75" x2="66.25" y2="131" stroke="#E76F51" stroke-width="1.8" stroke-linecap="round" opacity="0.6"/>
    <line x1="106.75" y1="126.5" x2="133.75" y2="122.9" stroke="#E76F51" stroke-width="1.8" stroke-linecap="round" opacity="0.6"/>
    <line x1="106.75" y1="128.75" x2="133.75" y2="131" stroke="#E76F51" stroke-width="1.8" stroke-linecap="round" opacity="0.6"/>
  
</svg>